<svg width="1455" height="748" xmlns="http://www.w3.org/2000/svg" xmlns:xlink="http://www.w3.org/1999/xlink" overflow="hidden"><defs><clipPath id="clip0"><rect x="616" y="188" width="1455" height="748"/></clipPath></defs><g clip-path="url(#clip0)" transform="translate(-616 -188)"><path d="M1182 661.5C1182 656.806 1185.58 653 1190 653 1194.42 653 1198 656.806 1198 661.5 1198 666.194 1194.42 670 1190 670 1185.58 670 1182 666.194 1182 661.5Z" fill="#4472C4" fill-rule="evenodd"/><path d="M1182 682C1182 677.582 1185.58 674 1190 674 1194.42 674 1198 677.582 1198 682 1198 686.418 1194.42 690 1190 690 1185.58 690 1182 686.418 1182 682Z" fill="#4472C4" fill-rule="evenodd"/><path d="M1182 704.5C1182 699.806 1185.58 696 1190 696 1194.42 696 1198 699.806 1198 704.5 1198 709.194 1194.42 713 1190 713 1185.58 713 1182 709.194 1182 704.5Z" fill="#4472C4" fill-rule="evenodd"/><path d="M0 0 148.225 0.000360892" stroke="#FF0000" stroke-width="13.75" stroke-miterlimit="8" fill="none" fill-rule="evenodd" transform="matrix(-1 0 0 1 1806.23 810)"/><path d="M1777 855 1806.7 855" stroke="#000000" stroke-width="13.75" stroke-miterlimit="8" fill="none" fill-rule="evenodd"/><path d="M0 0 129.84 0.000360892" stroke="#000000" stroke-width="13.75" stroke-miterlimit="8" fill="none" fill-rule="evenodd" transform="matrix(-1 0 0 1 1639.84 810)"/><path d="M0 0 800.637 0.780971" stroke="#000000" stroke-width="13.75" stroke-miterlimit="8" fill="none" fill-rule="evenodd" transform="matrix(-1 0 0 1 1423.64 810)"/><path d="M662.5 904.5 700 754.5 909.5 754.5 872 904.5Z" stroke="#2F528F" stroke-width="4.58333" stroke-miterlimit="8" fill="#4472C4" fill-rule="evenodd"/><path d="M1157.5 904.5 1195 754.5 1404.5 754.5 1367 904.5Z" stroke="#2F528F" stroke-width="4.58333" stroke-miterlimit="8" fill="#4472C4" fill-rule="evenodd"/><path d="M0 0 37.549 150.197" stroke="#FFFFFF" stroke-width="4.58333" stroke-miterlimit="8" fill="none" fill-rule="evenodd" transform="matrix(-1 0 0 1 772.049 754.5)"/><path d="M0 0 37.549 150.197" stroke="#FFFFFF" stroke-width="4.58333" stroke-miterlimit="8" fill="none" fill-rule="evenodd" transform="matrix(-1 0 0 1 836.049 756.5)"/><path d="M0 0 209.711 0.000360892" stroke="#FFFFFF" stroke-width="4.58333" stroke-miterlimit="8" fill="none" fill-rule="evenodd" transform="matrix(-1 0 0 1 884.211 851.5)"/><path d="M0 0 209.711 0.000360892" stroke="#FFFFFF" stroke-width="4.58333" stroke-miterlimit="8" fill="none" fill-rule="evenodd" transform="matrix(-1 0 0 1 898.211 806.5)"/><path d="M908.5 903.5 946 753.5 1155.5 753.5 1118 903.5Z" stroke="#2F528F" stroke-width="4.58333" stroke-miterlimit="8" fill="#4472C4" fill-rule="evenodd"/><path d="M0 0 37.549 150.197" stroke="#FFFFFF" stroke-width="4.58333" stroke-miterlimit="8" fill="none" fill-rule="evenodd" transform="matrix(-1 0 0 1 1018.05 753.5)"/><path d="M0 0 37.549 150.197" stroke="#FFFFFF" stroke-width="4.58333" stroke-miterlimit="8" fill="none" fill-rule="evenodd" transform="matrix(-1 0 0 1 1082.05 755.5)"/><path d="M0 0 209.711 0.000360892" stroke="#FFFFFF" stroke-width="4.58333" stroke-miterlimit="8" fill="none" fill-rule="evenodd" transform="matrix(-1 0 0 1 1130.21 851.5)"/><path d="M0 0 209.711 0.000360892" stroke="#FFFFFF" stroke-width="4.58333" stroke-miterlimit="8" fill="none" fill-rule="evenodd" transform="matrix(-1 0 0 1 1145.21 805.5)"/><path d="M0 0 37.549 150.197" stroke="#FFFFFF" stroke-width="4.58333" stroke-miterlimit="8" fill="none" fill-rule="evenodd" transform="matrix(-1 0 0 1 1266.05 752.5)"/><path d="M0 0 37.549 150.197" stroke="#FFFFFF" stroke-width="4.58333" stroke-miterlimit="8" fill="none" fill-rule="evenodd" transform="matrix(-1 0 0 1 1329.05 754.5)"/><path d="M0 0 209.711 0.000360892" stroke="#FFFFFF" stroke-width="4.58333" stroke-miterlimit="8" fill="none" fill-rule="evenodd" transform="matrix(-1 0 0 1 1378.21 850.5)"/><path d="M0 0 209.711 0.000360892" stroke="#FFFFFF" stroke-width="4.58333" stroke-miterlimit="8" fill="none" fill-rule="evenodd" transform="matrix(-1 0 0 1 1392.21 804.5)"/><path d="M1522.5 902.5 1560 752.5 1769.5 752.5 1732 902.5Z" stroke="#2F528F" stroke-width="4.58333" stroke-miterlimit="8" fill="#4472C4" fill-rule="evenodd"/><path d="M0 0 37.549 150.197" stroke="#FFFFFF" stroke-width="4.58333" stroke-miterlimit="8" fill="none" fill-rule="evenodd" transform="matrix(-1 0 0 1 1633.05 752.5)"/><path d="M0 0 37.549 150.197" stroke="#FFFFFF" stroke-width="4.58333" stroke-miterlimit="8" fill="none" fill-rule="evenodd" transform="matrix(-1 0 0 1 1696.05 754.5)"/><path d="M0 0 209.711 0.000360892" stroke="#FFFFFF" stroke-width="4.58333" stroke-miterlimit="8" fill="none" fill-rule="evenodd" transform="matrix(-1 0 0 1 1745.21 850.5)"/><path d="M0 0 209.711 0.000360892" stroke="#FFFFFF" stroke-width="4.58333" stroke-miterlimit="8" fill="none" fill-rule="evenodd" transform="matrix(-1 0 0 1 1759.21 804.5)"/><path d="M1437 810C1437 805.582 1440.81 802 1445.5 802 1450.19 802 1454 805.582 1454 810 1454 814.418 1450.19 818 1445.5 818 1440.81 818 1437 814.418 1437 810Z" fill-rule="evenodd"/><path d="M1457 810C1457 805.582 1460.81 802 1465.5 802 1470.19 802 1474 805.582 1474 810 1474 814.418 1470.19 818 1465.5 818 1460.81 818 1457 814.418 1457 810Z" fill-rule="evenodd"/><path d="M1478 810C1478 805.582 1481.81 802 1486.5 802 1491.19 802 1495 805.582 1495 810 1495 814.418 1491.19 818 1486.5 818 1481.81 818 1478 814.418 1478 810Z" fill-rule="evenodd"/><path d="M1970 833 2062.01 833" stroke="#00B0F0" stroke-width="10.3125" stroke-miterlimit="8" fill="none" fill-rule="evenodd"/><path d="M1970 811 2062.01 811" stroke="#7F6000" stroke-width="10.3125" stroke-miterlimit="8" fill="none" fill-rule="evenodd"/><path d="M1973 858 2065.01 858" stroke="#00B050" stroke-width="10.3125" stroke-miterlimit="8" fill="none" fill-rule="evenodd"/><rect x="1807.5" y="747.5" width="163" height="165" stroke="#7F7F7F" stroke-width="4.58333" stroke-miterlimit="8" fill="none"/><path d="M0 0 163.397 165" stroke="#7F7F7F" stroke-width="6.875" stroke-miterlimit="8" fill="none" fill-rule="evenodd" transform="matrix(-1 0 0 1 1972.9 747.5)"/><text fill="#7F7F7F" font-family="Arial,Arial_MSFontService,sans-serif" font-weight="400" font-size="46" transform="matrix(1 0 0 1 1823.52 797)">DC<tspan font-size="46" x="80.3296" y="101">AC</tspan></text><path d="M0 0 0.000360892 125.4" stroke="#000000" stroke-width="10.3125" stroke-miterlimit="8" fill="none" fill-rule="evenodd" transform="matrix(1 0 0 -1 627 930.4)"/><path d="M0 0 1155 0.000360892" stroke="#000000" stroke-width="10.3125" stroke-miterlimit="8" fill="none" fill-rule="evenodd" transform="matrix(-1 0 0 1 1778 925)"/><path d="M1775 851 1775 930.2" stroke="#000000" stroke-width="10.3125" stroke-miterlimit="8" fill="none" fill-rule="evenodd"/><path d="M0 0 148.225 0.000360892" stroke="#FF0000" stroke-width="13.75" stroke-miterlimit="8" fill="none" fill-rule="evenodd" transform="matrix(-1 0 0 1 1806.23 263)"/><path d="M1777 308 1806.7 308" stroke="#000000" stroke-width="13.75" stroke-miterlimit="8" fill="none" fill-rule="evenodd"/><path d="M0 0 129.84 0.000360892" stroke="#000000" stroke-width="13.75" stroke-miterlimit="8" fill="none" fill-rule="evenodd" transform="matrix(-1 0 0 1 1639.84 263)"/><path d="M0 0 800.637 0.780971" stroke="#000000" stroke-width="13.75" stroke-miterlimit="8" fill="none" fill-rule="evenodd" transform="matrix(-1 0 0 1 1423.64 263)"/><path d="M662.5 357.5 700 207.5 909.5 207.5 872 357.5Z" stroke="#2F528F" stroke-width="4.58333" stroke-miterlimit="8" fill="#4472C4" fill-rule="evenodd"/><path d="M1157.5 357.5 1195 207.5 1404.5 207.5 1367 357.5Z" stroke="#2F528F" stroke-width="4.58333" stroke-miterlimit="8" fill="#4472C4" fill-rule="evenodd"/><path d="M0 0 37.549 150.197" stroke="#FFFFFF" stroke-width="4.58333" stroke-miterlimit="8" fill="none" fill-rule="evenodd" transform="matrix(-1 0 0 1 772.049 207.5)"/><path d="M0 0 37.549 150.197" stroke="#FFFFFF" stroke-width="4.58333" stroke-miterlimit="8" fill="none" fill-rule="evenodd" transform="matrix(-1 0 0 1 836.049 209.5)"/><path d="M0 0 209.711 0.000360892" stroke="#FFFFFF" stroke-width="4.58333" stroke-miterlimit="8" fill="none" fill-rule="evenodd" transform="matrix(-1 0 0 1 884.211 304.5)"/><path d="M0 0 209.711 0.000360892" stroke="#FFFFFF" stroke-width="4.58333" stroke-miterlimit="8" fill="none" fill-rule="evenodd" transform="matrix(-1 0 0 1 898.211 259.5)"/><path d="M908.5 356.5 946 206.5 1155.5 206.5 1118 356.5Z" stroke="#2F528F" stroke-width="4.58333" stroke-miterlimit="8" fill="#4472C4" fill-rule="evenodd"/><path d="M0 0 37.549 150.197" stroke="#FFFFFF" stroke-width="4.58333" stroke-miterlimit="8" fill="none" fill-rule="evenodd" transform="matrix(-1 0 0 1 1018.05 206.5)"/><path d="M0 0 37.549 150.197" stroke="#FFFFFF" stroke-width="4.58333" stroke-miterlimit="8" fill="none" fill-rule="evenodd" transform="matrix(-1 0 0 1 1082.05 208.5)"/><path d="M0 0 209.711 0.000360892" stroke="#FFFFFF" stroke-width="4.58333" stroke-miterlimit="8" fill="none" fill-rule="evenodd" transform="matrix(-1 0 0 1 1130.21 304.5)"/><path d="M0 0 209.711 0.000360892" stroke="#FFFFFF" stroke-width="4.58333" stroke-miterlimit="8" fill="none" fill-rule="evenodd" transform="matrix(-1 0 0 1 1145.21 258.5)"/><path d="M0 0 37.549 150.197" stroke="#FFFFFF" stroke-width="4.58333" stroke-miterlimit="8" fill="none" fill-rule="evenodd" transform="matrix(-1 0 0 1 1266.05 205.5)"/><path d="M0 0 37.549 150.197" stroke="#FFFFFF" stroke-width="4.58333" stroke-miterlimit="8" fill="none" fill-rule="evenodd" transform="matrix(-1 0 0 1 1329.05 207.5)"/><path d="M0 0 209.711 0.000360892" stroke="#FFFFFF" stroke-width="4.58333" stroke-miterlimit="8" fill="none" fill-rule="evenodd" transform="matrix(-1 0 0 1 1378.21 303.5)"/><path d="M0 0 209.711 0.000360892" stroke="#FFFFFF" stroke-width="4.58333" stroke-miterlimit="8" fill="none" fill-rule="evenodd" transform="matrix(-1 0 0 1 1392.21 257.5)"/><path d="M1522.5 355.5 1560 205.5 1769.5 205.5 1732 355.5Z" stroke="#2F528F" stroke-width="4.58333" stroke-miterlimit="8" fill="#4472C4" fill-rule="evenodd"/><path d="M0 0 37.549 150.197" stroke="#FFFFFF" stroke-width="4.58333" stroke-miterlimit="8" fill="none" fill-rule="evenodd" transform="matrix(-1 0 0 1 1633.05 205.5)"/><path d="M0 0 37.549 150.197" stroke="#FFFFFF" stroke-width="4.58333" stroke-miterlimit="8" fill="none" fill-rule="evenodd" transform="matrix(-1 0 0 1 1696.05 207.5)"/><path d="M0 0 209.711 0.000360892" stroke="#FFFFFF" stroke-width="4.58333" stroke-miterlimit="8" fill="none" fill-rule="evenodd" transform="matrix(-1 0 0 1 1745.21 302.5)"/><path d="M0 0 209.711 0.000360892" stroke="#FFFFFF" stroke-width="4.58333" stroke-miterlimit="8" fill="none" fill-rule="evenodd" transform="matrix(-1 0 0 1 1759.21 257.5)"/><path d="M1437 263C1437 258.582 1440.81 255 1445.5 255 1450.19 255 1454 258.582 1454 263 1454 267.418 1450.19 271 1445.5 271 1440.81 271 1437 267.418 1437 263Z" fill-rule="evenodd"/><path d="M1457 263C1457 258.582 1460.81 255 1465.5 255 1470.19 255 1474 258.582 1474 263 1474 267.418 1470.19 271 1465.5 271 1460.81 271 1457 267.418 1457 263Z" fill-rule="evenodd"/><path d="M1478 263C1478 258.582 1481.81 255 1486.5 255 1491.19 255 1495 258.582 1495 263 1495 267.418 1491.19 271 1486.5 271 1481.81 271 1478 267.418 1478 263Z" fill-rule="evenodd"/><path d="M1970 286 2062.01 286" stroke="#00B0F0" stroke-width="10.3125" stroke-miterlimit="8" fill="none" fill-rule="evenodd"/><path d="M1970 264 2062.01 264" stroke="#7F6000" stroke-width="10.3125" stroke-miterlimit="8" fill="none" fill-rule="evenodd"/><path d="M1973 311 2065.01 311" stroke="#00B050" stroke-width="10.3125" stroke-miterlimit="8" fill="none" fill-rule="evenodd"/><rect x="1807.5" y="200.5" width="163" height="165" stroke="#7F7F7F" stroke-width="4.58333" stroke-miterlimit="8" fill="none"/><path d="M0 0 163.397 165" stroke="#7F7F7F" stroke-width="6.875" stroke-miterlimit="8" fill="none" fill-rule="evenodd" transform="matrix(-1 0 0 1 1972.9 200.5)"/><text fill="#7F7F7F" font-family="Arial,Arial_MSFontService,sans-serif" font-weight="400" font-size="46" transform="matrix(1 0 0 1 1823.52 250)">DC<tspan font-size="46" x="80.3296" y="101">AC</tspan></text><path d="M0 0 0.000360892 125.4" stroke="#000000" stroke-width="10.3125" stroke-miterlimit="8" fill="none" fill-rule="evenodd" transform="matrix(1 0 0 -1 627 383.4)"/><path d="M0 0 1155 0.000360892" stroke="#000000" stroke-width="10.3125" stroke-miterlimit="8" fill="none" fill-rule="evenodd" transform="matrix(-1 0 0 1 1778 382)"/><path d="M1775 304 1775 383.2" stroke="#000000" stroke-width="10.3125" stroke-miterlimit="8" fill="none" fill-rule="evenodd"/><path d="M0 0 148.225 0.000360892" stroke="#FF0000" stroke-width="13.75" stroke-miterlimit="8" fill="none" fill-rule="evenodd" transform="matrix(-1 0 0 1 1806.23 484)"/><path d="M1777 529 1806.7 529" stroke="#000000" stroke-width="13.75" stroke-miterlimit="8" fill="none" fill-rule="evenodd"/><path d="M0 0 129.84 0.000360892" stroke="#000000" stroke-width="13.75" stroke-miterlimit="8" fill="none" fill-rule="evenodd" transform="matrix(-1 0 0 1 1639.84 484)"/><path d="M0 0 800.637 0.780971" stroke="#000000" stroke-width="13.75" stroke-miterlimit="8" fill="none" fill-rule="evenodd" transform="matrix(-1 0 0 1 1423.64 484)"/><path d="M662.5 578.5 700 428.5 909.5 428.5 872 578.5Z" stroke="#2F528F" stroke-width="4.58333" stroke-miterlimit="8" fill="#4472C4" fill-rule="evenodd"/><path d="M1157.5 578.5 1195 428.5 1404.5 428.5 1367 578.5Z" stroke="#2F528F" stroke-width="4.58333" stroke-miterlimit="8" fill="#4472C4" fill-rule="evenodd"/><path d="M0 0 37.549 150.197" stroke="#FFFFFF" stroke-width="4.58333" stroke-miterlimit="8" fill="none" fill-rule="evenodd" transform="matrix(-1 0 0 1 772.049 428.5)"/><path d="M0 0 37.549 150.197" stroke="#FFFFFF" stroke-width="4.58333" stroke-miterlimit="8" fill="none" fill-rule="evenodd" transform="matrix(-1 0 0 1 836.049 430.5)"/><path d="M0 0 209.711 0.000360892" stroke="#FFFFFF" stroke-width="4.58333" stroke-miterlimit="8" fill="none" fill-rule="evenodd" transform="matrix(-1 0 0 1 884.211 525.5)"/><path d="M0 0 209.711 0.000360892" stroke="#FFFFFF" stroke-width="4.58333" stroke-miterlimit="8" fill="none" fill-rule="evenodd" transform="matrix(-1 0 0 1 898.211 480.5)"/><path d="M908.5 577.5 946 427.5 1155.5 427.5 1118 577.5Z" stroke="#2F528F" stroke-width="4.58333" stroke-miterlimit="8" fill="#4472C4" fill-rule="evenodd"/><path d="M0 0 37.549 150.197" stroke="#FFFFFF" stroke-width="4.58333" stroke-miterlimit="8" fill="none" fill-rule="evenodd" transform="matrix(-1 0 0 1 1018.05 427.5)"/><path d="M0 0 37.549 150.197" stroke="#FFFFFF" stroke-width="4.58333" stroke-miterlimit="8" fill="none" fill-rule="evenodd" transform="matrix(-1 0 0 1 1082.05 429.5)"/><path d="M0 0 209.711 0.000360892" stroke="#FFFFFF" stroke-width="4.58333" stroke-miterlimit="8" fill="none" fill-rule="evenodd" transform="matrix(-1 0 0 1 1130.21 525.5)"/><path d="M0 0 209.711 0.000360892" stroke="#FFFFFF" stroke-width="4.58333" stroke-miterlimit="8" fill="none" fill-rule="evenodd" transform="matrix(-1 0 0 1 1145.21 479.5)"/><path d="M0 0 37.549 150.197" stroke="#FFFFFF" stroke-width="4.58333" stroke-miterlimit="8" fill="none" fill-rule="evenodd" transform="matrix(-1 0 0 1 1266.05 426.5)"/><path d="M0 0 37.549 150.197" stroke="#FFFFFF" stroke-width="4.58333" stroke-miterlimit="8" fill="none" fill-rule="evenodd" transform="matrix(-1 0 0 1 1329.05 428.5)"/><path d="M0 0 209.711 0.000360892" stroke="#FFFFFF" stroke-width="4.58333" stroke-miterlimit="8" fill="none" fill-rule="evenodd" transform="matrix(-1 0 0 1 1378.21 524.5)"/><path d="M0 0 209.711 0.000360892" stroke="#FFFFFF" stroke-width="4.58333" stroke-miterlimit="8" fill="none" fill-rule="evenodd" transform="matrix(-1 0 0 1 1392.21 478.5)"/><path d="M1522.5 576.5 1560 426.5 1769.5 426.5 1732 576.5Z" stroke="#2F528F" stroke-width="4.58333" stroke-miterlimit="8" fill="#4472C4" fill-rule="evenodd"/><path d="M0 0 37.549 150.197" stroke="#FFFFFF" stroke-width="4.58333" stroke-miterlimit="8" fill="none" fill-rule="evenodd" transform="matrix(-1 0 0 1 1633.05 426.5)"/><path d="M0 0 37.549 150.197" stroke="#FFFFFF" stroke-width="4.58333" stroke-miterlimit="8" fill="none" fill-rule="evenodd" transform="matrix(-1 0 0 1 1696.05 428.5)"/><path d="M0 0 209.711 0.000360892" stroke="#FFFFFF" stroke-width="4.58333" stroke-miterlimit="8" fill="none" fill-rule="evenodd" transform="matrix(-1 0 0 1 1745.21 524.5)"/><path d="M0 0 209.711 0.000360892" stroke="#FFFFFF" stroke-width="4.58333" stroke-miterlimit="8" fill="none" fill-rule="evenodd" transform="matrix(-1 0 0 1 1759.21 478.5)"/><path d="M1437 484C1437 479.582 1440.81 476 1445.5 476 1450.19 476 1454 479.582 1454 484 1454 488.418 1450.19 492 1445.5 492 1440.81 492 1437 488.418 1437 484Z" fill-rule="evenodd"/><path d="M1457 484C1457 479.582 1460.81 476 1465.5 476 1470.19 476 1474 479.582 1474 484 1474 488.418 1470.19 492 1465.5 492 1460.81 492 1457 488.418 1457 484Z" fill-rule="evenodd"/><path d="M1478 484C1478 479.582 1481.81 476 1486.5 476 1491.19 476 1495 479.582 1495 484 1495 488.418 1491.19 492 1486.5 492 1481.81 492 1478 488.418 1478 484Z" fill-rule="evenodd"/><path d="M1970 507 2062.01 507" stroke="#00B0F0" stroke-width="10.3125" stroke-miterlimit="8" fill="none" fill-rule="evenodd"/><path d="M1970 485 2062.01 485" stroke="#7F6000" stroke-width="10.3125" stroke-miterlimit="8" fill="none" fill-rule="evenodd"/><path d="M1973 532 2065.01 532" stroke="#00B050" stroke-width="10.3125" stroke-miterlimit="8" fill="none" fill-rule="evenodd"/><rect x="1807.5" y="421.5" width="163" height="165" stroke="#7F7F7F" stroke-width="4.58333" stroke-miterlimit="8" fill="none"/><path d="M0 0 163.397 165" stroke="#7F7F7F" stroke-width="6.875" stroke-miterlimit="8" fill="none" fill-rule="evenodd" transform="matrix(-1 0 0 1 1972.9 421.5)"/><text fill="#7F7F7F" font-family="Arial,Arial_MSFontService,sans-serif" font-weight="400" font-size="46" transform="matrix(1 0 0 1 1823.52 471)">DC<tspan font-size="46" x="80.3296" y="101">AC</tspan></text><path d="M0 0 0.000360892 125.4" stroke="#000000" stroke-width="10.3125" stroke-miterlimit="8" fill="none" fill-rule="evenodd" transform="matrix(1 0 0 -1 627 604.4)"/><path d="M0 0 1155 0.000360892" stroke="#000000" stroke-width="10.3125" stroke-miterlimit="8" fill="none" fill-rule="evenodd" transform="matrix(-1 0 0 1 1778 599)"/><path d="M1775 525 1775 604.2" stroke="#000000" stroke-width="10.3125" stroke-miterlimit="8" fill="none" fill-rule="evenodd"/></g></svg>